<svg width="409" height="409" viewBox="0 0 409 409" fill="none" xmlns="http://www.w3.org/2000/svg">
<g clip-path="url(#clip0_174_395)">
<path d="M204.5 409C317.442 409 409 317.442 409 204.5C409 91.5578 317.442 0 204.5 0C91.5578 0 0 91.5578 0 204.5C0 317.442 91.5578 409 204.5 409Z" fill="#CCF0FE"/>
<path d="M282 156.735C282 170.987 276.384 184.655 266.387 194.732C256.389 204.809 242.83 210.471 228.692 210.471C214.554 210.471 200.995 204.809 190.998 194.732C181.001 184.655 175.385 170.987 175.385 156.735C175.385 142.484 181.001 128.816 190.998 118.739C200.995 108.661 214.554 103 228.692 103C242.83 103 256.389 108.661 266.387 118.739C276.384 128.816 282 142.484 282 156.735V156.735ZM256.578 134.596C256.028 134.04 255.374 133.599 254.655 133.298C253.935 132.997 253.164 132.842 252.385 132.842C251.606 132.842 250.834 132.997 250.115 133.298C249.395 133.599 248.741 134.04 248.191 134.596L216.846 166.205L209.194 158.479C208.643 157.924 207.989 157.483 207.27 157.183C206.55 156.882 205.779 156.728 205 156.728C204.221 156.728 203.45 156.882 202.73 157.183C202.011 157.483 201.357 157.924 200.806 158.479C200.256 159.034 199.819 159.693 199.521 160.418C199.223 161.143 199.069 161.921 199.069 162.706C199.069 163.491 199.223 164.268 199.521 164.994C199.819 165.719 200.256 166.378 200.806 166.933L212.653 178.874C213.203 179.43 213.856 179.871 214.576 180.172C215.296 180.473 216.067 180.628 216.846 180.628C217.625 180.628 218.397 180.473 219.116 180.172C219.836 179.871 220.489 179.43 221.04 178.874L256.578 143.051C257.13 142.496 257.567 141.837 257.866 141.112C258.165 140.386 258.318 139.609 258.318 138.824C258.318 138.038 258.165 137.261 257.866 136.535C257.567 135.81 257.13 135.151 256.578 134.596V134.596ZM178.429 114.941H145.769C141.057 114.941 136.537 116.828 133.204 120.187C129.872 123.547 128 128.102 128 132.853V288.088C128 292.839 129.872 297.395 133.204 300.754C136.537 304.113 141.057 306 145.769 306H228.692C233.405 306 237.925 304.113 241.257 300.754C244.589 297.395 246.462 292.839 246.462 288.088V219.94C242.589 221.044 238.623 221.784 234.615 222.149V288.088C234.615 289.672 233.991 291.19 232.881 292.31C231.77 293.43 230.263 294.059 228.692 294.059H145.769C144.198 294.059 142.692 293.43 141.581 292.31C140.47 291.19 139.846 289.672 139.846 288.088V132.853C139.846 131.269 140.47 129.751 141.581 128.631C142.692 127.511 144.198 126.882 145.769 126.882H170.646C172.814 122.607 175.432 118.607 178.429 114.941ZM163.538 264.206C163.538 262.622 164.162 261.104 165.273 259.984C166.384 258.864 167.891 258.235 169.462 258.235H205C206.571 258.235 208.077 258.864 209.188 259.984C210.299 261.104 210.923 262.622 210.923 264.206C210.923 265.789 210.299 267.308 209.188 268.428C208.077 269.547 206.571 270.176 205 270.176H169.462C167.891 270.176 166.384 269.547 165.273 268.428C164.162 267.308 163.538 265.789 163.538 264.206Z" fill="#0C60D9"/>
</g>
<defs>
<clipPath id="clip0_174_395">
<rect width="409" height="409" fill="white"/>
</clipPath>
</defs>
</svg>
