<svg width="409" height="409" viewBox="0 0 409 409" fill="none" xmlns="http://www.w3.org/2000/svg">
<g clip-path="url(#clip0_174_405)">
<path d="M204.5 409C317.442 409 409 317.442 409 204.5C409 91.5578 317.442 0 204.5 0C91.5578 0 0 91.5578 0 204.5C0 317.442 91.5578 409 204.5 409Z" fill="#CEC5FE"/>
<path d="M223.045 214.75C214.902 214.75 207.979 211.906 202.278 206.219C196.578 200.531 193.727 193.625 193.727 185.5C193.727 177.375 196.578 170.469 202.278 164.781C207.979 159.094 214.902 156.25 223.045 156.25C231.189 156.25 238.112 159.094 243.812 164.781C249.513 170.469 252.364 177.375 252.364 185.5C252.364 193.625 249.513 200.531 243.812 206.219C238.112 211.906 231.189 214.75 223.045 214.75ZM135.091 244V127H311V244H135.091ZM174.182 224.5H271.909C271.909 219.137 273.821 214.545 277.646 210.723C281.477 206.908 286.08 205 291.455 205V166C286.08 166 281.477 164.089 277.646 160.267C273.821 156.452 271.909 151.863 271.909 146.5H174.182C174.182 151.863 172.266 156.452 168.435 160.267C164.611 164.089 160.011 166 154.636 166V205C160.011 205 164.611 206.908 168.435 210.723C172.266 214.545 174.182 219.137 174.182 224.5ZM96 283V156.25H115.545V263.5H281.682V283H96ZM154.636 224.5V146.5V224.5Z" fill="#4627E1"/>
</g>
<defs>
<clipPath id="clip0_174_405">
<rect width="409" height="409" fill="white"/>
</clipPath>
</defs>
</svg>
